<svg width="48" height="48" viewBox="0 0 48 48" fill="none" xmlns="http://www.w3.org/2000/svg">
<circle cx="24" cy="24" r="23" stroke="#08C056" stroke-opacity="0.24" stroke-width="2"/>
<path d="M28.5 15H19.5C17.0147 15 15 17.0147 15 19.5V28.5C15 30.9853 17.0147 33 19.5 33H28.5C30.9853 33 33 30.9853 33 28.5V19.5C33 17.0147 30.9853 15 28.5 15Z" stroke="#08C056" stroke-width="2" stroke-linecap="round" stroke-linejoin="round"/>
<path d="M27.6 23.4323C27.7111 24.1813 27.5832 24.9463 27.2344 25.6184C26.8857 26.2905 26.3339 26.8356 25.6575 27.176C24.9811 27.5164 24.2146 27.6349 23.467 27.5146C22.7194 27.3943 22.0288 27.0414 21.4934 26.5059C20.958 25.9705 20.605 25.2799 20.4847 24.5323C20.3644 23.7847 20.4829 23.0182 20.8233 22.3418C21.1638 21.6655 21.7088 21.1137 22.3809 20.7649C23.053 20.4162 23.818 20.2882 24.567 20.3993C25.3311 20.5126 26.0384 20.8686 26.5846 21.4148C27.1307 21.9609 27.4867 22.6683 27.6 23.4323Z" stroke="#08C056" stroke-width="2" stroke-linecap="round" stroke-linejoin="round"/>
<path d="M28.95 19.0508H28.9582" stroke="#08C056" stroke-width="2" stroke-linecap="round" stroke-linejoin="round"/>
</svg>
